<svg width="30" height="30" viewBox="0 0 30 30" fill="none" xmlns="http://www.w3.org/2000/svg">
<mask id="path-1-inside-1_6401_171" fill="white">
<path fill-rule="evenodd" clip-rule="evenodd" d="M15.039 4.81473C9.08945 0.423546 3.45945 -1.27661 1.13587 1.02923C-1.18771 3.33507 0.469264 8.97794 4.81473 14.961C0.423547 20.9105 -1.27661 26.5405 1.02923 28.8641C3.33507 31.1877 8.97793 29.5307 14.9609 25.1852C20.9105 29.5764 26.5405 31.2766 28.8641 28.9708C31.1877 26.6649 29.5307 21.022 25.1852 15.039C29.5764 9.08944 31.2766 3.45942 28.9708 1.13584C26.6649 -1.18775 21.022 0.469237 15.039 4.81473Z"/>
</mask>
<path fill-rule="evenodd" clip-rule="evenodd" d="M15.039 4.81473C9.08945 0.423546 3.45945 -1.27661 1.13587 1.02923C-1.18771 3.33507 0.469264 8.97794 4.81473 14.961C0.423547 20.9105 -1.27661 26.5405 1.02923 28.8641C3.33507 31.1877 8.97793 29.5307 14.9609 25.1852C20.9105 29.5764 26.5405 31.2766 28.8641 28.9708C31.1877 26.6649 29.5307 21.022 25.1852 15.039C29.5764 9.08944 31.2766 3.45942 28.9708 1.13584C26.6649 -1.18775 21.022 0.469237 15.039 4.81473Z" fill="#5E96FC"/>
<path d="M1.13587 1.02923L0.431481 0.31942L0.43148 0.31942L1.13587 1.02923ZM15.039 4.81473L14.4452 5.61931L15.0343 6.0541L15.6267 5.62384L15.039 4.81473ZM4.81473 14.961L5.61932 15.5548L6.05411 14.9657L5.62384 14.3733L4.81473 14.961ZM1.02923 28.8641L0.31942 29.5685L0.31942 29.5685L1.02923 28.8641ZM14.9609 25.1852L15.5548 24.3807L14.9657 23.9459L14.3733 24.3761L14.9609 25.1852ZM28.8641 28.9708L28.1597 28.261L28.8641 28.9708ZM25.1852 15.039L24.3807 14.4452L23.9459 15.0343L24.3761 15.6267L25.1852 15.039ZM28.9708 1.13584L29.6806 0.431446L29.6806 0.431446L28.9708 1.13584ZM1.84027 1.73904C2.60169 0.983434 4.10688 0.713254 6.45732 1.37335C8.74468 2.01573 11.5302 3.46786 14.4452 5.61931L15.6328 4.01015C12.5983 1.77041 9.594 0.176875 6.99808 -0.552159C4.46524 -1.26348 1.99364 -1.23082 0.431481 0.31942L1.84027 1.73904ZM5.62384 14.3733C3.49479 11.4419 2.06404 8.64538 1.43921 6.35316C0.79714 3.99773 1.07885 2.49465 1.84027 1.73904L0.43148 0.31942C-1.13068 1.86966 -1.18228 4.34093 -0.490388 6.87915C0.218734 9.48058 1.78921 12.497 4.00562 15.5486L5.62384 14.3733ZM1.73904 28.1597C0.983434 27.3983 0.713254 25.8931 1.37335 23.5426C2.01573 21.2553 3.46787 18.4698 5.61932 15.5548L4.01015 14.3671C1.77042 17.4017 0.176877 20.406 -0.552158 23.0019C-1.26348 25.5347 -1.23082 28.0063 0.31942 29.5685L1.73904 28.1597ZM14.3733 24.3761C11.4419 26.5052 8.64537 27.9359 6.35316 28.5608C3.99773 29.2028 2.49465 28.9211 1.73904 28.1597L0.31942 29.5685C1.86966 31.1306 4.34093 31.1822 6.87914 30.4904C9.48057 29.7812 12.497 28.2108 15.5486 25.9943L14.3733 24.3761ZM28.1597 28.261C27.3983 29.0166 25.8931 29.2867 23.5427 28.6266C21.2553 27.9843 18.4698 26.5321 15.5548 24.3807L14.3671 25.9898C17.4017 28.2296 20.406 29.8231 23.0019 30.5522C25.5347 31.2635 28.0064 31.2308 29.5685 29.6806L28.1597 28.261ZM24.3761 15.6267C26.5052 18.558 27.9359 21.3546 28.5608 23.6468C29.2029 26.0023 28.9212 27.5053 28.1597 28.261L29.5685 29.6806C31.1307 28.1303 31.1823 25.6591 30.4904 23.1208C29.7813 20.5194 28.2108 17.503 25.9943 14.4513L24.3761 15.6267ZM28.261 1.84023C29.0166 2.60165 29.2867 4.10685 28.6266 6.4573C27.9843 8.74467 26.5321 11.5302 24.3807 14.4452L25.9898 15.6328C28.2296 12.5983 29.8231 9.59399 30.5522 6.99806C31.2635 4.46521 31.2308 1.99361 29.6806 0.431446L28.261 1.84023ZM15.6267 5.62384C18.558 3.49477 21.3546 2.06402 23.6468 1.43918C26.0023 0.797105 27.5053 1.07881 28.261 1.84023L29.6806 0.431446C28.1303 -1.13072 25.6591 -1.18231 23.1208 -0.490417C20.5194 0.218711 17.503 1.78919 14.4513 4.00562L15.6267 5.62384Z" fill="black" mask="url(#path-1-inside-1_6401_171)"/>
</svg>
